<svg width="154" height="70" viewBox="0 0 154 70" fill="none" xmlns="http://www.w3.org/2000/svg">
<g clip-path="url(#clip0_4_194)">
<path d="M17.1451 35.4919H21.5766V60.9189H17.1451V49.5131H6.61101V60.9189H2.17944V35.4919H6.61101V45.0815H17.1451V35.4919ZM25.9463 60.9189V35.4919H35.6994C37.0797 35.4919 38.3271 35.837 39.441 36.5272C40.555 37.2173 41.4388 38.1435 42.0927 39.3059C42.7465 40.4562 43.0734 41.7336 43.0734 43.1381C43.0734 44.2884 42.8615 45.3479 42.4374 46.3165C42.0261 47.2731 41.4449 48.1025 40.6942 48.8047C39.9556 49.507 39.102 50.0398 38.1333 50.403L44.2177 60.9189H39.1141L33.2294 50.8026H30.3779V60.9189H25.9463ZM30.3779 46.371H35.1909C35.8205 46.371 36.3956 46.2136 36.9163 45.8988C37.4369 45.584 37.8548 45.1602 38.1697 44.6274C38.4845 44.0947 38.6419 43.5014 38.6419 42.8475C38.6419 42.1816 38.4845 41.5822 38.1697 41.0495C37.8548 40.5167 37.4369 40.0929 36.9163 39.7781C36.3956 39.4633 35.8205 39.3059 35.1909 39.3059H30.3779V46.371ZM51.341 59.7081V55.1312H46.7641V52.1768H51.341V47.6H54.2954V52.1768H58.8723V55.1312H54.2954V59.7081H51.341ZM63.2331 60.9189V48.8108H66.1874V49.8884C66.5991 49.4525 67.0918 49.1097 67.6646 48.8592C68.2379 48.6012 68.8554 48.4718 69.5172 48.4718C70.3568 48.4718 71.1275 48.6696 71.8298 49.0651C72.5404 49.4608 73.1053 49.9894 73.525 50.6512C73.9529 49.9894 74.5178 49.4608 75.2201 49.0651C75.9224 48.6696 76.6935 48.4718 77.5327 48.4718C78.4208 48.4718 79.2241 48.6897 79.9423 49.1256C80.6687 49.5535 81.2461 50.1306 81.6737 50.8571C82.1096 51.5756 82.3276 52.3789 82.3276 53.2666V60.9189H79.3732V54.0536C79.3732 53.5855 79.2562 53.1576 79.022 52.7701C78.7961 52.3747 78.4893 52.0599 78.1018 51.8257C77.7227 51.5835 77.2947 51.4625 76.8184 51.4625C76.3424 51.4625 75.9102 51.5798 75.5228 51.8136C75.1437 52.0399 74.8368 52.3464 74.6026 52.7338C74.3687 53.1213 74.2514 53.5613 74.2514 54.0536V60.9189H71.2971V54.0536C71.2971 53.5613 71.1843 53.1213 70.958 52.7338C70.7321 52.3464 70.4253 52.0399 70.0378 51.8136C69.6504 51.5798 69.2186 51.4625 68.7422 51.4625C68.2742 51.4625 67.8463 51.5835 67.4588 51.8257C67.0713 52.0599 66.7607 52.3747 66.5265 52.7701C66.3006 53.1576 66.1874 53.5855 66.1874 54.0536V60.9189H63.2331ZM93.6464 48.8108H96.6007V60.9189H93.6464L93.5132 59.4175C93.1825 59.9586 92.7424 60.3982 92.1934 60.7373C91.6527 61.0684 91.011 61.2337 90.2682 61.2337C89.3722 61.2337 88.533 61.0642 87.7497 60.7252C86.9669 60.3861 86.2767 59.9181 85.6792 59.3206C85.0901 58.7235 84.6258 58.0334 84.2868 57.2501C83.9561 56.4673 83.7904 55.6276 83.7904 54.7316C83.7904 53.8682 83.9478 53.0569 84.2626 52.2979C84.5857 51.5393 85.0337 50.8733 85.6066 50.3001C86.1798 49.7272 86.8416 49.2792 87.5923 48.9561C88.343 48.6333 89.1505 48.4718 90.0139 48.4718C90.8131 48.4718 91.5274 48.6496 92.1571 49.0045C92.795 49.3598 93.3357 49.812 93.7795 50.3606L93.6464 48.8108ZM90.1955 58.3883C90.8252 58.3883 91.3821 58.2309 91.8665 57.9161C92.3508 57.6013 92.7303 57.1775 93.0046 56.6447C93.2793 56.104 93.4163 55.5107 93.4163 54.8648C93.4163 54.211 93.2793 53.6177 93.0046 53.0849C92.7303 52.5442 92.347 52.1163 91.8544 51.8015C91.37 51.4867 90.8172 51.3293 90.1955 51.3293C89.5742 51.3293 89.0052 51.4908 88.4883 51.8136C87.9798 52.1284 87.5723 52.5522 87.2654 53.0849C86.9669 53.6177 86.8174 54.211 86.8174 54.8648C86.8174 55.5187 86.971 56.112 87.2775 56.6447C87.5844 57.1775 87.9919 57.6013 88.5004 57.9161C89.0173 58.2309 89.5822 58.3883 90.1955 58.3883ZM110.105 53.2666V60.9189H107.15V54.0415C107.15 53.5655 107.033 53.1334 106.799 52.7459C106.565 52.3505 106.25 52.0399 105.855 51.8136C105.467 51.5798 105.035 51.4625 104.559 51.4625C104.083 51.4625 103.647 51.5798 103.251 51.8136C102.864 52.0399 102.553 52.3505 102.319 52.7459C102.093 53.1334 101.98 53.5655 101.98 54.0415V60.9189H99.0258L99.0136 48.8108H101.968L101.98 49.8884C102.392 49.4525 102.884 49.1097 103.457 48.8592C104.03 48.6012 104.648 48.4718 105.31 48.4718C106.19 48.4718 106.993 48.6897 107.719 49.1256C108.446 49.5535 109.023 50.1306 109.451 50.8571C109.887 51.5756 110.105 52.3789 110.105 53.2666ZM121.41 48.8108H124.364V60.9189H121.41L121.277 59.4175C120.946 59.9586 120.506 60.3982 119.957 60.7373C119.416 61.0684 118.774 61.2337 118.032 61.2337C117.136 61.2337 116.296 61.0642 115.513 60.7252C114.73 60.3861 114.04 59.9181 113.443 59.3206C112.854 58.7235 112.389 58.0334 112.05 57.2501C111.72 56.4673 111.554 55.6276 111.554 54.7316C111.554 53.8682 111.711 53.0569 112.026 52.2979C112.349 51.5393 112.797 50.8733 113.37 50.3001C113.943 49.7272 114.605 49.2792 115.356 48.9561C116.107 48.6333 116.914 48.4718 117.777 48.4718C118.577 48.4718 119.291 48.6496 119.921 49.0045C120.559 49.3598 121.099 49.812 121.543 50.3606L121.41 48.8108ZM117.959 58.3883C118.589 58.3883 119.146 58.2309 119.63 57.9161C120.114 57.6013 120.494 57.1775 120.768 56.6447C121.043 56.104 121.18 55.5107 121.18 54.8648C121.18 54.211 121.043 53.6177 120.768 53.0849C120.494 52.5442 120.111 52.1163 119.618 51.8015C119.134 51.4867 118.581 51.3293 117.959 51.3293C117.338 51.3293 116.769 51.4908 116.252 51.8136C115.743 52.1284 115.336 52.5522 115.029 53.0849C114.73 53.6177 114.581 54.211 114.581 54.8648C114.581 55.5187 114.735 56.112 115.041 56.6447C115.348 57.1775 115.755 57.6013 116.264 57.9161C116.781 58.2309 117.346 58.3883 117.959 58.3883ZM135.525 48.8108H138.479V61.1489C138.479 62.0207 138.301 62.8119 137.947 63.5221C137.591 64.2407 137.107 64.854 136.494 65.3626C135.88 65.8794 135.178 66.2748 134.387 66.5492C133.596 66.8318 132.764 66.9729 131.892 66.9729C131.045 66.9729 130.229 66.7996 129.447 66.4523C128.663 66.1053 127.969 65.629 127.364 65.0235C126.767 64.4265 126.311 63.7442 125.996 62.9773L128.696 61.7543C128.857 62.1986 129.099 62.586 129.422 62.9167C129.753 63.2558 130.133 63.5184 130.561 63.7038C130.988 63.8975 131.432 63.9944 131.892 63.9944C132.361 63.9944 132.809 63.93 133.236 63.8006C133.672 63.6716 134.064 63.482 134.411 63.2315C134.758 62.9894 135.028 62.6908 135.222 62.3355C135.424 61.9886 135.525 61.5932 135.525 61.1489V59.4417C135.145 59.9745 134.669 60.4066 134.096 60.7373C133.523 61.0684 132.861 61.2337 132.11 61.2337C131.239 61.2337 130.423 61.0684 129.665 60.7373C128.906 60.4066 128.236 59.9502 127.655 59.3691C127.081 58.7799 126.629 58.1019 126.299 57.3349C125.975 56.5683 125.814 55.7449 125.814 54.8648C125.814 53.9851 125.975 53.1618 126.299 52.3948C126.629 51.6282 127.081 50.9539 127.655 50.3727C128.236 49.7836 128.906 49.3235 129.665 48.9924C130.423 48.6617 131.239 48.496 132.11 48.496C132.861 48.496 133.523 48.6617 134.096 48.9924C134.669 49.3155 135.145 49.7431 135.525 50.2759V48.8108ZM132.147 58.3883C132.768 58.3883 133.317 58.2309 133.793 57.9161C134.278 57.5933 134.657 57.1654 134.932 56.6326C135.206 56.0919 135.343 55.5028 135.343 54.8648C135.343 54.2193 135.202 53.6298 134.919 53.0971C134.645 52.5643 134.266 52.1367 133.781 51.8136C133.305 51.4908 132.76 51.3293 132.147 51.3293C131.541 51.3293 130.988 51.4908 130.488 51.8136C129.987 52.1284 129.588 52.5522 129.289 53.0849C128.99 53.6177 128.841 54.211 128.841 54.8648C128.841 55.5187 128.99 56.112 129.289 56.6447C129.588 57.1775 129.987 57.6013 130.488 57.9161C130.988 58.2309 131.541 58.3883 132.147 58.3883ZM146.436 61.2337C145.322 61.2337 144.305 60.9473 143.385 60.374C142.472 59.8012 141.742 59.03 141.193 58.0614C140.652 57.0927 140.382 56.0234 140.382 54.8527C140.382 53.973 140.539 53.1497 140.854 52.3827C141.169 51.6078 141.601 50.9297 142.15 50.3485C142.707 49.7594 143.352 49.2993 144.087 48.9682C144.821 48.6375 145.604 48.4718 146.436 48.4718C147.38 48.4718 148.244 48.6738 149.027 49.0772C149.818 49.4729 150.488 50.0178 151.037 50.7118C151.586 51.4061 151.985 52.1973 152.236 53.0849C152.486 53.973 152.542 54.9012 152.405 55.8698H143.554C143.667 56.322 143.853 56.7295 144.111 57.0927C144.369 57.448 144.696 57.7345 145.092 57.9524C145.487 58.1624 145.935 58.2714 146.436 58.2793C146.952 58.2877 147.42 58.1666 147.84 57.9161C148.268 57.658 148.623 57.3107 148.906 56.8748L151.921 57.5771C151.428 58.6509 150.694 59.5306 149.717 60.2166C148.74 60.8947 147.647 61.2337 146.436 61.2337ZM143.457 53.654H149.414C149.325 53.1697 149.136 52.7338 148.845 52.3463C148.563 51.9509 148.212 51.6361 147.792 51.4019C147.372 51.1681 146.92 51.0508 146.436 51.0508C145.951 51.0508 145.503 51.1681 145.092 51.4019C144.68 51.6282 144.329 51.9388 144.038 52.3342C143.756 52.7217 143.562 53.1618 143.457 53.654Z" fill="#4169E1"/>
<path d="M38.3955 39.6104L61.6707 25.9888" stroke="#4169E1" stroke-width="5"/>
<path d="M62.3701 26.1833L89.1396 29.11" stroke="#4169E1" stroke-width="5"/>
<path d="M88.5281 29.4663L121.063 7.5874" stroke="#4169E1" stroke-width="5"/>
<path d="M63.3261 33.339C67.1062 32.8934 69.8093 29.4677 69.3636 25.6876C68.918 21.9075 65.4923 19.2044 61.7122 19.6501C57.9321 20.0957 55.229 23.5214 55.6746 27.3015C56.1203 31.0816 59.546 33.7847 63.3261 33.339Z" fill="#00BFFF"/>
<path d="M90.2133 35.6181C93.9934 35.1724 96.6965 31.7467 96.2508 27.9666C95.8052 24.1865 92.3795 21.4834 88.5994 21.9291C84.8193 22.3748 82.1162 25.8005 82.5619 29.5806C83.0075 33.3607 86.4332 36.0638 90.2133 35.6181Z" fill="#001F3F"/>
<path d="M122.748 14.496C126.528 14.0503 129.231 10.6247 128.786 6.84456C128.34 3.06445 124.914 0.361363 121.134 0.807041C117.354 1.25272 114.651 4.6784 115.097 8.4585C115.542 12.2386 118.968 14.9417 122.748 14.496Z" fill="#0000FF"/>
</g>
<defs>
<clipPath id="clip0_4_194">
<rect width="153.243" height="70" fill="white"/>
</clipPath>
</defs>
</svg>
